<?xml version="1.0" standalone="no"?>
<!DOCTYPE svg PUBLIC "-//W3C//DTD SVG 20010904//EN"
 "http://www.w3.org/TR/2001/REC-SVG-20010904/DTD/svg10.dtd">
<svg version="1.0" xmlns="http://www.w3.org/2000/svg"
 width="225.000000pt" height="225.000000pt" viewBox="0 0 225.000000 225.000000"
 preserveAspectRatio="xMidYMid meet">

<g transform="translate(0.000000,225.000000) scale(0.100000,-0.100000)"
fill="#000000" stroke="none">
<path d="M435 2236 c-70 -30 -65 49 -65 -1111 0 -1163 -5 -1081 67 -1111 48
-20 1328 -20 1376 0 72 30 67 -52 67 1111 0 1163 5 1081 -67 1111 -47 20
-1333 20 -1378 0z m1349 -72 c14 -5 16 -38 16 -260 l0 -254 -675 0 -675 0 0
254 c0 194 3 256 13 259 18 8 1302 8 1321 1z m16 -1333 c0 -665 -2 -739 -16
-745 -20 -8 -1298 -8 -1318 0 -14 6 -16 80 -16 745 l0 739 675 0 675 0 0 -739z"/>
<path d="M510 1910 l0 -200 615 0 615 0 0 200 0 200 -615 0 -615 0 0 -200z
m1150 0 l0 -120 -535 0 -535 0 0 120 0 120 535 0 535 0 0 -120z"/>
<path d="M533 1470 c-34 -14 -43 -42 -43 -140 0 -83 2 -93 25 -115 22 -23 32
-25 120 -25 88 0 98 2 120 25 23 22 25 32 25 118 0 133 -7 141 -132 144 -51 2
-103 -2 -115 -7z m167 -135 l0 -65 -65 0 -65 0 0 65 0 65 65 0 65 0 0 -65z"/>
<path d="M846 1459 c-25 -20 -26 -24 -26 -125 0 -140 4 -144 139 -144 133 0
142 8 149 117 5 95 -8 145 -44 162 -14 6 -62 11 -108 11 -69 0 -88 -4 -110
-21z m184 -124 l0 -65 -65 0 -65 0 0 65 0 65 65 0 65 0 0 -65z"/>
<path d="M1183 1468 c-33 -16 -46 -69 -41 -161 7 -109 16 -117 149 -117 135 0
139 4 139 144 0 101 -1 105 -26 125 -23 18 -40 21 -113 20 -47 0 -96 -5 -108
-11z m167 -133 l0 -65 -65 0 -65 0 0 65 0 65 65 0 65 0 0 -65z"/>
<path d="M1513 1470 c-34 -14 -43 -42 -43 -140 0 -83 2 -93 25 -115 22 -23 32
-25 120 -25 88 0 98 2 120 25 23 22 25 32 25 118 0 133 -7 141 -132 144 -51 2
-103 -2 -115 -7z m167 -135 l0 -65 -65 0 -65 0 0 65 0 65 65 0 65 0 0 -65z"/>
<path d="M511 1104 c-18 -23 -21 -41 -21 -118 0 -133 3 -136 141 -136 145 0
149 4 149 134 0 79 -3 97 -21 120 -20 25 -24 26 -124 26 -100 0 -104 -1 -124
-26z m189 -119 l0 -65 -65 0 -65 0 0 65 0 65 65 0 65 0 0 -65z"/>
<path d="M840 1110 c-17 -17 -20 -33 -20 -123 0 -136 1 -137 142 -137 139 0
143 4 143 142 0 132 -6 138 -146 138 -86 0 -102 -3 -119 -20z m188 -122 l-3
-63 -62 -3 -63 -3 0 66 0 65 65 0 66 0 -3 -62z"/>
<path d="M1169 1111 c-22 -18 -24 -26 -24 -119 0 -139 3 -142 145 -142 139 0
140 1 140 138 0 138 -4 142 -139 142 -82 0 -103 -3 -122 -19z m181 -126 l0
-66 -62 3 -63 3 -3 63 -3 62 66 0 65 0 0 -65z"/>
<path d="M1491 1104 c-18 -23 -21 -41 -21 -120 0 -130 4 -134 149 -134 138 0
141 3 141 136 0 77 -3 95 -21 118 -20 25 -24 26 -124 26 -100 0 -104 -1 -124
-26z m189 -119 l0 -65 -65 0 -65 0 0 65 0 65 65 0 65 0 0 -65z"/>
<path d="M533 780 c-34 -14 -43 -42 -43 -138 0 -75 3 -93 21 -116 20 -25 24
-26 124 -26 100 0 104 1 124 26 18 23 21 41 21 119 0 131 -8 139 -132 142 -51
2 -103 -2 -115 -7z m167 -135 l0 -65 -65 0 -65 0 0 65 0 65 65 0 65 0 0 -65z"/>
<path d="M870 783 c-44 -16 -50 -33 -50 -140 0 -139 4 -143 139 -143 133 0
142 8 149 117 6 103 -8 148 -50 162 -32 11 -161 14 -188 4z m158 -140 l3 -63
-66 0 -65 0 0 65 0 66 63 -3 62 -3 3 -62z"/>
<path d="M1188 779 c-38 -14 -51 -63 -46 -162 7 -109 16 -117 149 -117 135 0
139 4 139 143 0 135 -6 141 -129 144 -47 1 -98 -2 -113 -8z m162 -134 l0 -65
-65 0 -65 0 0 58 c0 32 3 62 7 65 3 4 33 7 65 7 l58 0 0 -65z"/>
<path d="M1513 780 c-40 -17 -43 -38 -43 -313 0 -331 -9 -312 145 -312 154 0
145 -20 145 315 0 331 7 314 -132 317 -51 2 -103 -2 -115 -7z m167 -310 l0
-240 -65 0 -65 0 0 240 0 240 65 0 65 0 0 -240z"/>
<path d="M511 414 c-18 -23 -21 -41 -21 -119 0 -134 6 -140 145 -140 139 0
145 5 145 142 0 86 -2 96 -25 118 -22 23 -31 25 -124 25 -96 0 -100 -1 -120
-26z m189 -119 l0 -65 -65 0 -65 0 0 65 0 65 65 0 65 0 0 -65z"/>
<path d="M840 420 c-17 -17 -20 -33 -20 -123 0 -134 6 -140 126 -146 145 -6
170 21 162 172 -7 109 -16 117 -149 117 -86 0 -102 -3 -119 -20z m188 -122
l-3 -63 -62 -3 -63 -3 0 66 0 65 65 0 66 0 -3 -62z"/>
<path d="M1170 422 c-20 -16 -24 -31 -28 -99 -8 -151 17 -178 162 -172 120 6
126 12 126 146 0 139 -4 143 -139 143 -81 0 -103 -3 -121 -18z m180 -127 l0
-66 -62 3 -63 3 -3 63 -3 62 66 0 65 0 0 -65z"/>
</g>
</svg>
