<?xml version="1.0" standalone="no"?>
<!DOCTYPE svg PUBLIC "-//W3C//DTD SVG 20010904//EN"
 "http://www.w3.org/TR/2001/REC-SVG-20010904/DTD/svg10.dtd">
<svg version="1.0" xmlns="http://www.w3.org/2000/svg"
 width="228.000000pt" height="221.000000pt" viewBox="0 0 228.000000 221.000000"
 preserveAspectRatio="xMidYMid meet">

<g transform="translate(0.000000,221.000000) scale(0.100000,-0.100000)"
fill="#000000" stroke="none">
<path d="M905 2163 c-158 -5 -341 -24 -423 -43 -133 -32 -202 -76 -261 -169
-28 -42 -171 -396 -171 -421 0 -6 17 -10 38 -10 36 0 39 3 86 82 109 182 229
244 456 236 l95 -3 -3 -115 c-6 -212 -43 -458 -98 -640 -58 -193 -134 -340
-285 -552 -53 -76 -103 -154 -109 -174 -18 -53 -6 -136 25 -190 52 -89 160
-136 259 -114 64 14 94 31 137 77 89 93 141 270 184 623 13 114 95 1031 95
1073 0 16 18 17 246 17 l245 0 -6 -82 c-8 -102 -39 -442 -66 -723 -26 -278
-36 -582 -20 -657 28 -131 114 -242 229 -296 52 -25 67 -27 182 -27 118 0 128
2 185 29 78 38 170 131 217 221 42 81 82 212 93 303 l7 62 -40 0 c-40 0 -40
-1 -47 -42 -24 -149 -116 -232 -255 -231 -81 0 -138 27 -180 84 -83 115 -92
310 -40 834 11 116 23 279 27 363 l6 152 264 0 263 0 0 163 0 164 -187 6
c-176 7 -970 6 -1148 0z"/>
</g>
</svg>
